<svg xmlns="http://www.w3.org/2000/svg" height="800" width="1200" viewBox="-114.7503 -40.203 994.5026 241.218"><path d="M177.861 2.313v155.953h-35.17V2.313zm30.537 155.954V2.313h41.186l32.394 57.152c9.255 16.428 18.279 35.865 25.452 53.45h.463c-2.083-20.593-2.777-41.649-2.777-65.25V2.313h32.394v155.953h-37.021l-33.319-60.16c-9.255-16.659-19.667-36.79-27.072-55.069h-.926c1.157 20.825 1.62 42.807 1.62 68.259v46.971zm252.433-65.945h-57.384v37.021h64.094v28.923h-99.264V2.313h96.024v28.923h-60.854V63.63h57.384zm145.073 61.78c-6.247 3.008-21.056 6.71-39.798 6.71-53.913 0-81.679-33.782-81.679-78.208C484.427 29.386 522.375 0 569.577 0c18.279 0 32.162 3.471 38.409 6.941l-7.404 27.766c-6.941-3.008-16.891-5.785-29.617-5.785-27.766 0-49.516 16.891-49.516 51.599 0 31.237 18.511 50.904 49.747 50.904 10.875 0 22.444-2.082 29.617-5.09zm56.911-122.171h-42.112V2.313H740.56V31.93h-42.575v126.336h-35.17V31.931z" fill="#6a47bd"/><path fill="#6A47BD" d="M126.125 2.039H85l-49.375 76v-76H0v156.125h35.625V82.372l49.896 75.792h44.167l-57.73-79.958zm620.772.428h7.075v1.668H751.5v9.695h-2.118V4.135h-2.484V2.467zm10.456 11.364h-2.122V2.467h3.38l1.135 5.271c.184.864.303 1.744.395 2.624h.028c.107-1.123.183-1.879.334-2.624l1.139-5.271h3.36v11.364h-2.118v-3.576c0-2.257.044-4.515.18-6.772h-.028l-2.273 10.348h-1.29l-2.226-10.348h-.076c.136 2.257.184 4.515.184 6.772v3.576z"/></svg>